<svg width="409" height="406" viewBox="0 0 409 406" fill="none" xmlns="http://www.w3.org/2000/svg">
<path d="M203.464 300.258H275.888V392.867C229.136 410.225 177.615 410.015 131.008 392.275V271.648C150.56 290.089 176.509 300.336 203.464 300.258V300.258Z" fill="#9792FF"/>
<path d="M383.194 300.259C365.749 331.917 340.143 358.392 309.004 376.966V300.259H383.194Z" fill="#9792FF"/>
<path d="M203.464 123.363C193.877 123.247 184.363 125.024 175.472 128.591C166.581 132.157 158.491 137.442 151.671 144.139C144.851 150.836 139.436 158.812 135.74 167.604C132.044 176.396 130.141 185.83 130.141 195.359C130.141 204.888 132.044 214.322 135.74 223.115C139.436 231.907 144.851 239.883 151.671 246.58C158.491 253.277 166.581 258.562 175.472 262.128C184.363 265.694 193.877 267.471 203.464 267.356H275.888V195.365C275.865 176.279 268.228 157.981 254.652 144.484C241.075 130.986 222.667 123.391 203.464 123.363V123.363ZM204.049 225.751C197.962 225.753 192.011 223.961 186.948 220.602C181.886 217.242 177.939 212.465 175.608 206.876C173.277 201.287 172.666 195.137 173.853 189.203C175.039 183.269 177.969 177.818 182.273 173.539C186.577 169.26 192.06 166.346 198.031 165.165C204.001 163.984 210.189 164.589 215.813 166.903C221.438 169.218 226.245 173.139 229.627 178.169C233.009 183.199 234.814 189.114 234.814 195.164C234.816 199.18 234.021 203.157 232.476 206.868C230.93 210.579 228.664 213.951 225.807 216.792C222.95 219.632 219.558 221.885 215.825 223.423C212.092 224.96 208.09 225.751 204.049 225.751V225.751Z" fill="#9792FF"/>
<path d="M373.758 90.4699H203.464C189.603 90.4658 175.877 93.1761 163.07 98.4461C150.264 103.716 138.628 111.442 128.826 121.183C119.025 130.925 111.251 142.49 105.949 155.218C100.647 167.946 97.9196 181.588 97.9238 195.364V376.025C68.1102 357.932 43.478 332.525 26.393 302.243C9.30801 271.961 0.344111 237.822 0.362271 203.104C0.362271 91.1889 91.6367 0.472839 204.24 0.472839C237.767 0.447115 270.781 8.64802 300.352 24.3477C329.924 40.0473 355.138 62.76 373.758 90.4699V90.4699Z" fill="#9792FF"/>
<path d="M408.119 203.103C408.14 224.942 404.605 246.639 397.651 267.355H309.004V195.364C309.077 168.578 298.768 142.793 280.217 123.362H391.725C402.578 148.561 408.156 175.693 408.119 203.103V203.103Z" fill="#9792FF"/>
</svg>
