<svg width="97" height="32" viewBox="0 0 97 32" fill="none" xmlns="http://www.w3.org/2000/svg">
<g clip-path="url(#clip0_70_193)">
<path d="M16.0372 23.6715H21.7559V30.984C18.0643 32.3546 13.9961 32.338 10.316 30.9372V21.4124C11.8598 22.8685 13.9088 23.6776 16.0372 23.6715V23.6715Z" fill="white"/>
<path d="M30.2289 23.6715C28.8514 26.1712 26.8296 28.2617 24.3707 29.7284V23.6715H30.2289Z" fill="white"/>
<path d="M16.0372 9.70354C15.2802 9.69443 14.5289 9.83474 13.8269 10.1163C13.1249 10.3979 12.4861 10.8152 11.9475 11.344C11.409 11.8728 10.9814 12.5026 10.6896 13.1969C10.3978 13.8912 10.2475 14.6361 10.2475 15.3885C10.2475 16.1409 10.3978 16.8858 10.6896 17.5801C10.9814 18.2743 11.409 18.9041 11.9475 19.4329C12.4861 19.9617 13.1249 20.379 13.8269 20.6606C14.5289 20.9422 15.2802 21.0826 16.0372 21.0734H21.7559V15.3889C21.7541 13.8819 21.1511 12.4371 20.079 11.3713C19.007 10.3055 17.5535 9.70575 16.0372 9.70354V9.70354ZM16.0834 17.7883C15.6027 17.7884 15.1328 17.6469 14.7331 17.3816C14.3333 17.1164 14.0217 16.7392 13.8377 16.2979C13.6536 15.8566 13.6054 15.3709 13.699 14.9024C13.7927 14.4338 14.0241 14.0034 14.3639 13.6655C14.7037 13.3276 15.1367 13.0975 15.6081 13.0043C16.0796 12.911 16.5682 12.9588 17.0123 13.1416C17.4564 13.3244 17.836 13.6339 18.103 14.0311C18.3701 14.4283 18.5126 14.8953 18.5126 15.373C18.5127 15.6902 18.45 16.0042 18.328 16.2973C18.2059 16.5903 18.027 16.8565 17.8014 17.0808C17.5758 17.3051 17.308 17.483 17.0132 17.6044C16.7184 17.7258 16.4025 17.7883 16.0834 17.7883V17.7883Z" fill="white"/>
<path d="M29.4838 7.10623H16.0371C14.9427 7.1059 13.8589 7.31991 12.8476 7.73604C11.8364 8.15216 10.9176 8.76224 10.1437 9.53141C9.36976 10.3006 8.75593 11.2138 8.33724 12.2188C7.91856 13.2239 7.70323 14.3011 7.70356 15.3888V29.654C5.34944 28.2254 3.40445 26.2192 2.0554 23.8281C0.706343 21.437 -0.0014585 18.7413 -2.45283e-05 15.9999C-2.45283e-05 7.163 7.20712 -5.62715e-05 16.0985 -5.62715e-05C18.7457 -0.00208745 21.3526 0.645467 23.6876 1.88513C26.0226 3.12479 28.0136 4.91822 29.4838 7.10623V7.10623Z" fill="white"/>
<path d="M32.197 16C32.1987 17.7244 31.9195 19.4377 31.3704 21.0734H24.3707V15.3889C24.3765 13.2738 23.5625 11.2378 22.0977 9.70352H30.9025C31.7595 11.6933 32.1999 13.8356 32.197 16V16Z" fill="white"/>
<path d="M47.2287 9.8371H48.8415V23.6715H47.2287V21.7513C46.3677 22.7081 45.1866 24.0438 42.7414 24.0438C39.0328 24.0438 37.7972 21.8273 37.7972 18.9429V9.8371H39.4092V18.9178C39.4092 21.2947 40.4575 22.6029 42.9833 22.6029C45.6436 22.6029 47.2287 20.413 47.2287 17.3683V9.8371Z" fill="white"/>
<path d="M60.7996 4.44226H62.4115V23.6715H60.7996V21.2412H60.7458C59.8076 23.057 57.6824 24.0438 55.9083 24.0438C51.4211 24.0438 49.6209 20.8655 49.6209 16.7806C49.6209 12.9085 51.5823 9.46308 55.8277 9.46308C57.7899 9.46308 59.7756 10.3714 60.7996 12.0511V4.44226ZM56.0956 10.9057C52.7642 10.9057 51.2052 13.71 51.3396 17.1813C51.3665 20.6535 53.3816 22.6029 56.0956 22.6029C59.1322 22.6029 60.7996 20.039 60.7996 16.7004C60.7996 13.5764 59.0255 10.9057 56.0965 10.9057H56.0956Z" fill="white"/>
<path d="M65.475 23.6715H63.8622V9.83709H65.475V12.4251H65.5288C66.415 10.2086 67.7321 9.46057 70.0698 9.46057V11.1971C66.4418 11.1136 65.475 13.7851 65.475 16.8849V23.6715Z" fill="white"/>
<path d="M70.7418 6.81909V4.44226H72.515V6.81909H70.7418ZM70.8258 23.6715V9.8371H72.4377V23.6715H70.8258Z" fill="white"/>
<path d="M72.9174 9.8371H74.6645L79.1787 21.692L83.6936 9.8371H85.44L80.0388 23.6715H78.2379L72.9174 9.8371Z" fill="white"/>
<path d="M86.1388 17.1279C86.112 20.1192 87.7239 22.6029 90.8143 22.6029C92.91 22.6029 94.5497 21.4549 95.0335 19.4246H96.8337C96.0273 22.0427 94.3616 24.0455 90.8143 24.0455C86.3539 24.0455 84.4185 20.8939 84.4185 16.8073C84.4185 12.7749 86.8377 9.46057 90.8143 9.46057C94.6303 9.46057 96.968 12.158 96.9412 17.1254L86.1388 17.1279ZM95.2209 15.7921C95.2209 13.0947 93.7164 10.9049 90.8143 10.9049C87.9658 10.9049 86.4614 13.1748 86.1388 15.7921H95.2209Z" fill="white"/>
</g>
<defs>
<clipPath id="clip0_70_193">
<rect width="96.9412" height="32" fill="white"/>
</clipPath>
</defs>
</svg>
